<svg xmlns="http://www.w3.org/2000/svg" width="66.832" height="57.838" viewBox="0 0 66.832 57.838">
  <path id="_8234192981537184103" data-name="8234192981537184103" d="M65.045,47.084,50.323,32.364V17.9a2.139,2.139,0,0,0-4.278,0V28.086l-11.7-11.7a2.139,2.139,0,0,0-3.025,0L.627,47.084a2.139,2.139,0,0,0,3.025,3.025L8.991,44.77V70.3a2.139,2.139,0,0,0,2.139,2.139H54.543A2.139,2.139,0,0,0,56.682,70.3V44.771l5.339,5.339a2.139,2.139,0,1,0,3.024-3.025ZM52.4,68.164H13.269V40.493L32.835,20.927,52.4,40.493V68.164Z" transform="translate(0.5 -15.104)" stroke="#000" stroke-width="1"/>
</svg>
