<svg xmlns="http://www.w3.org/2000/svg" width="50.116" height="55.59" viewBox="0 0 50.116 55.59">
  <g id="Layer_27" data-name="Layer 27" transform="translate(1 1)">
    <path id="Path_524" data-name="Path 524" d="M36.11,26.09c10.917-6.586,6.432-23.434-6.5-23.57-12.927.136-17.421,17-6.486,23.579A24.08,24.08,0,0,0,5.58,49.242c0,8.305,4.63,7.987,11.326,4.8,9.725-4.548,15.738-4.5,25.472,0,6.122,2.9,11.4,3.912,11.317-4.8A24.089,24.089,0,0,0,36.11,26.09ZM19.653,15.174a10.007,10.007,0,0,1,9.961-9.925c13.218.546,13.209,19.376,0,19.922a10.007,10.007,0,0,1-9.961-9.961Zm30.33,38.089c-.992.655-3.821-.555-6.559-1.728-3.821-1.628-8.57-3.639-13.8-3.639s-10.007,2.029-13.791,3.639c-2.729,1.174-5.577,2.383-6.559,1.728-.364-.237-.964-1.073-.964-4.021a21.315,21.315,0,0,1,42.629,0C50.938,52.189,50.347,52.99,49.983,53.263Z" transform="translate(-5.58 -2.52)" stroke="#000" stroke-width="2"/>
  </g>
</svg>
