<svg xmlns="http://www.w3.org/2000/svg" width="54.848" height="54.848" viewBox="0 0 54.848 54.848">
  <g id="loupe" transform="translate(0.25 0.25)">
    <g id="Group_3467" data-name="Group 3467" transform="translate(0 0)">
      <g id="Group_3466" data-name="Group 3466" transform="translate(0 0)">
        <path id="Path_423" data-name="Path 423" d="M23.934,0A23.933,23.933,0,1,0,47.867,23.933,23.961,23.961,0,0,0,23.934,0Zm0,43.447A19.515,19.515,0,1,1,43.449,23.933,19.537,19.537,0,0,1,23.934,43.447Z" transform="translate(0)" stroke="#000" stroke-width="0.5"/>
      </g>
    </g>
    <g id="Group_3469" data-name="Group 3469" transform="translate(37.263 37.262)">
      <g id="Group_3468" data-name="Group 3468">
        <path id="Path_424" data-name="Path 424" d="M367.483,364.359l-12.666-12.666a2.209,2.209,0,0,0-3.124,3.124l12.666,12.666a2.209,2.209,0,0,0,3.124-3.124Z" transform="translate(-351.046 -351.046)" stroke="#000" stroke-width="0.5"/>
      </g>
    </g>
  </g>
</svg>
